<svg width="400" height="317" viewBox="0 0 400 317" fill="none" xmlns="http://www.w3.org/2000/svg">
<path d="M245.536 13.6572L291.517 19.7428L307.514 1.18329L307.834 0L315.939 2.24195L323.404 15.4721L330.869 13.7639L338.974 17.2693L340.691 23.0437L340.042 23.1414L324.579 40.2242V70.19L346.021 67.2182L344.526 99.7464L351.573 92.7086L354.553 111.268L362.018 110.192L366.493 93.2248L383.567 92.7086L391.049 99.2037L390.08 121.714L396.592 127.683H396.797L400 142.195L396.592 144.001L400 169.305L388.487 194.03H346.439L333.227 201.61L297.585 204.707L303.572 209.191L310.183 230.419L283.082 264.985L258.348 284.479L246.826 309.231L219.725 313.297L206.504 316.802L162.125 296.001L137.373 297.727L106.224 311.055L104.524 301.775L85.5376 307.523L75.7239 291.953L56.7374 280.431L56.5149 280.973L28.0349 268.713L33.0619 257.707L51.5147 247.173L47.5643 225.17L19.5025 193.185L10.552 194.244L10.0182 185.186L20.0453 179.207L19.0844 160.221L0 138.672L1.05866 137.711L20.5703 121.714L56.5149 109.249L53.0094 77.2365L55.9989 69.6473L77.539 81.1869L81.5961 71.6758L93.5361 64.2288L106.553 75.7508L135.033 68.1702L128.52 59.7446L139.508 62.7341L140.585 40.2242L167.57 28.1684L167.027 37.6529L185.071 30.722L202.028 41.1851L209.066 34.6634L220.036 39.6904L217.056 29.6631L236.585 22.1895L245.536 34.2363V13.6572Z" fill="black"/>
</svg>
