<svg width="400" height="355" viewBox="0 0 400 355" fill="none" xmlns="http://www.w3.org/2000/svg">
<path d="M53.3175 229.343L48.4956 224.923L49.2135 208.257L43.6738 203.448L31.0327 203.83L27.7192 216.392L22.1925 217.189L19.9858 203.448L14.7687 208.659L15.8754 184.576L0 186.776V164.59L11.4486 151.942L11.9296 151.87L23.4574 149.261L36.2498 154.801L41.7897 151.87L46.0451 147.595L51.5718 150.533L58.8442 147.595L70.3719 137.734L68.6264 129.196H63.1062L60.0958 120.666L53.3175 117.761L51.5718 106.622L57.5729 96.4312L55.8404 93.8227L60.0958 85.2922L55.8404 76.7682V68.2376L46.0451 56.7034L38.786 46.9145L51.5718 36.724L55.8404 29.8535L61.8415 36.724L67.3682 32.4687L74.6339 34.1221L78.9025 18.3257L85.6941 22.5944L100.226 25.5981L110.014 23.9382L114.283 12.7991L127.075 8.53706L134.341 0L142.872 9.7953L135.606 28.2L168.45 38.3841L185.511 31.1248L203.844 17.0677L217.894 12.7991L229.422 14.0704L236.694 23.9382V38.3841L264.802 39.6488L307.455 22.5944H317.725L330.511 31.1248L340.313 28.2L347.559 45.2547L340.313 49.5233L344.548 56.7034L341.577 62.3157H353.105V58.0537L360.371 55.4452L358.638 65.2338L357.374 83.6388L364.633 93.8227L384.224 86.5702L392.754 92.1694V99.3626L390.218 106.622L400 133.472L398.748 142.002L392.754 144.999L394.467 150.533L377.432 154.801L358.638 168.931L351.84 173.2L356.116 205.971L368.901 227.288L364.633 240.087L362.894 232.894L337.302 257.161L323.251 237.169L298.925 248.631L289.109 264.407L300.677 275.56L293.391 278.464L283.589 289.992L276.343 315.597L266.541 312.6L256.272 318.199L253.756 326.729L245.199 332.658L252.017 348.046L251.694 348.599L242.432 347.414L230.219 354.133L221.689 350.411L196.657 351.517L199.575 324.128L192.309 313.924L170.986 318.199L164.195 316.862L147.134 324.128L134.341 286.995L124.078 279.808L117.287 274.196H110.014L105.752 265.692L107.017 258.485L102.755 257.161V241.424L92.9598 234.554L83.1579 237.169L81.4321 227.288L67.3682 231.556L60.0958 224.383L53.3175 228.638L53.4691 229.343H53.3175Z" fill="black"/>
</svg>
