<svg width="400" height="576" viewBox="0 0 400 576" fill="none" xmlns="http://www.w3.org/2000/svg">
<path d="M182.798 23.5943H190.695V36.4835H182.798L179.47 58.951L186.742 64.5417V74.1199L203.584 77.5262L199.632 92.6086L190.695 94.3682V111.193L182.798 113.377L190.695 122.418L182.798 184.142L188.415 186.326L190.695 195.367L194.032 191.952L205.257 199.233V193.607H213.136L224.37 180.727L246.829 191.952L282.151 197.551L287.759 191.952L291.703 200.993L297.328 193.607L300.657 210.441L319.778 203.177L342.219 217.8L351.156 195.367L356.764 189.768L362.381 197.551L392.728 189.768L400 197.551L396.047 210.441L394.383 200.993L387.102 212.217L388.775 216.058L387.102 220.019L383.158 214.402L384.822 236.835L379.206 245.875L388.775 257.092L384.822 270.501V283.39L366.325 281.726L351.156 283.39L342.219 277.799L310.209 287.351V276.126L291.703 277.799L295.04 298.576L300.657 300.249L306.247 311.457L298.984 318.842L295.04 324.442L304.601 346.909L310.209 345.132L315.826 350.749L347.819 356.34H351.156L356.764 350.749L345.539 377.143V378.79H351.156L349.492 384.407L367.989 401.231L372.661 412.664L364.869 419.434L362.381 414.233H355.1L360.708 436.666L330.994 447.908L339.931 464.741L334.323 474.198L338.267 485.405H325.378L349.492 506.2L355.1 519.098L359.044 515.241L370.278 530.306L371.933 523.042L377.559 520.858V532.082L381.503 537.691L370.278 548.907L371.933 560.132L362.381 565.757L355.1 567.924L351.156 565.757L339.931 575.205L328.697 558.372L298.984 569.58L297.328 556.699L291.703 565.757L272.581 558.372L276.534 565.757L272.581 569.58L271.03 569.701L256.476 534.371L271.03 495.079L262.093 479.91H241.307L219.169 515.969L198.695 528.546L180.727 525.226L177.918 523.146L170.013 485.527L168.349 435.01L141.955 423.785L88.1271 433.346L74.6225 423.785L69.0055 394.089L56.125 321.104L50.5083 317.178L46.5556 324.442L7.28118 322.786L0 309.897L16.8505 298.672L48.1245 272.165L44.796 270.501L63.2934 240.284L26.3939 217.8L22.4501 195.367L71.294 102.273L40.228 51.9559L41.3722 51.2276L58.9248 27.3474L81.262 16.1225L94.472 0L114.946 11.7539L150.484 24.435L166.069 24.9378L165.142 17.5613L168.462 9.34408L167.526 0.528785L184.974 5.52169L182.798 23.5943Z" fill="black"/>
</svg>
