<svg width="400" height="492" viewBox="0 0 400 492" fill="none" xmlns="http://www.w3.org/2000/svg">
<path d="M57.3451 476.173L47.3847 470.342L53.231 464.52L32.2453 452.831L22.4022 441.512L32.4438 427.994L37.5323 436.086L39.0481 420.865L27.9056 411.24L37.009 408.653L65.8712 389.412L82.1112 385.392L89.2478 373.199L77.5549 364.664L81.5608 350.407L82.6434 316.061L97.3497 289.673L95.3107 268.945L108.501 254.669L96.2671 226.362L81.1368 229.39L72.4845 221.288L36.0257 222.261L39.0481 189.411L28.8891 178.29L9.31986 165.637L7.56954 164.564L0 155.922L5.09744 137.771V128.578L14.1739 120.062L42.5037 113.888L40.5638 101.262L53.7634 96.2602L55.2791 95.7376L70.9687 94.1155L151.546 67.3308L146.467 55.2184L161.714 29.8306L167.335 0.991494L168.318 0H178.261L185.84 1.73051L185.948 1.61334L186.597 1.95576L201.313 22.8011L205.3 42.0333L226.62 46.5755L241.317 59.2289L252.478 56.7324L269.674 99.1893L283.938 91.6369L293.998 115.961L290.976 131.606L316.391 128.578L342.691 138.194L362.044 160.022L363.018 179.254L352.85 185.311L353.391 194.485L362.468 193.413L390.924 225.812L394.93 248.099L376.217 258.77L371.12 269.918L400 282.337L388.551 309.23L384.437 320.918L355.223 332.59L368.639 361.753V400.326L366.906 411.996L361.078 406.184L345.28 410.149L341.807 420.108L326.018 431.761L321.904 420.108L310.229 427.66L308.506 415.989L286.861 435.329L267.608 449.253L250.078 433.482L236.68 452.831L210.921 441.16L193.418 451.002L181.734 462.673L162.463 456.824L149.065 474.343L139.105 468.513V478.444L119.86 491.845L86.532 484.284L69.0199 487.844L61.4502 490.115H55.5948L57.3451 476.173Z" fill="black"/>
</svg>
